<svg xmlns="http://www.w3.org/2000/svg" width="64" height="64"><path d="M47.1 30.81l.12 1.03-3.17.37-.12-1m-2.73-9.08l4.75-1.08M37.11 7.84c-.42.58-1.93 1.94-5.11 1.92-3.19.02-4.7-1.34-5.12-1.92m-1.49 6.81l.63 14.28-.72 14.85h13.39l-.72-14.85.63-14.28H25.39zM32 8.59c2.36.12 3.38-.98 3.38-.98s5.67.58 6.82 1.74c1.15 1.15 1.49 1.8 1.93 3.69.44 1.9 3.28 14 3.47 16.81.03.47-.09.73-.38.92-1.01.34-3.16.44-3.16.44s-.82.06-1.01-.66C42.86 29.82 40.3 18 40.3 18l-.37 11.38s.94 5.53 1.35 11.81c.41 6.29.73 13.53.73 13.53s-5.4 1.89-10.01 1.64c-4.62.25-10.02-1.64-10.02-1.64s.32-7.24.73-13.53c.41-6.28 1.36-11.81 1.36-11.81L23.69 18s-2.56 11.82-2.75 12.55c-.19.72-1.01.66-1.01.66s-2.15-.1-3.16-.44c-.29-.19-.41-.45-.38-.92.19-2.81 3.03-14.91 3.47-16.81.45-1.89.78-2.54 1.93-3.69 1.15-1.16 6.82-1.74 6.82-1.74s1.02 1.1 3.39.98zM20.06 31.21l-.12 1-3.17-.37.12-1.03m5.9-8.68l-4.75-1.08" stroke="#fff" fill="none" stroke-linecap="round" stroke-linejoin="round"/></svg>