<svg xmlns="http://www.w3.org/2000/svg" width="64" height="64"><path d="M26.19 22.5c-.31 0-.56.26-.56.57a.56.56 0 101.12 0c0-.31-.25-.57-.56-.57zm-5.66 13.1h-6.84v2.16h6.84m29.76-24.35c-3.12-3.96-24.36 2.77-24.36 2.77l-3.82.14c-1.4.05-2.48 1.24-2.41 2.63l1.67 32.51s4.2.36 4.68-1.33c.27-.95-.04-9.96-.35-16.35m3.71-2.48c1.44 5.76 3.36 14.63 3.36 14.63s5.64.6 5.28 3.24c-.36 2.65-4.2 2.88-6 2.52 0 0-2.28-.36-3.24-4.8-.47-2.14-1.83-7.82-3.11-13.11-1.37-5.66-2.65-10.89-2.65-10.89s-.72-2.39 2.64-3.36c3.36-.96 23.4-4.68 24.6-6.12.36 5.52-11.16 7.68-15.36 8.76-4.2 1.08-6.96 3.37-5.52 9.13z" stroke="#fff" fill="none" stroke-linecap="round" stroke-linejoin="round"/></svg>