<svg xmlns="http://www.w3.org/2000/svg" width="64" height="64"><path d="M47.43 40.43h0l-24 10h0m4.97 2.07h0l24-10M37.53 17.69c-3.06-1.27-8.01-1.27-11.07 0-5.88 2.45.32 6.52 8.13 5.38m0 0c5.33-.77 7.08-3.66 2.94-5.38m-.6 6.36h-.01M41.6 26L56 32l-14.4 6-9.6 4c-7.54-3.14-16.29-6.79-24-10l14.4-6m12.19-2.93L32 22l-2.6 1.07m7.53.98h-.01c-3.91.83-9.06.64-12.64-.84-4.25-1.78-4.25-4.66 0-6.43 4.26-1.77 11.17-1.77 15.43 0 5.29 2.21 3.76 5.89-2.78 7.27zM32 10L8 20c22.35 9.31 17.39 7.24 24 10 1.78-.75 21.32-8.89 24-10L32 10zm-9.6 28L8 44l15.43 6.43h0l4.97 2.07h0L32 54l24-10-3.6-1.5-4.97-2.07h0L41.6 38m-7.27-3.03L32 34l-2.34.97m4.67-5.95L41.46 32c-.97.4 3.51-1.47-9.46 3.94-12.78-5.32-8.62-3.59-9.47-3.94l7.13-2.98m7.27-1.08L46.66 32 32 38.11 17.33 32l9.73-4.06" stroke="#fff" fill="none"/></svg>