<svg xmlns="http://www.w3.org/2000/svg" width="64" height="64"><path d="M49.13 24.91l.75-.99m.05.99l-.85-.99m-2.25-1.24l-.75.99m-.04-.99l.84.99m-1.92 1.49l-.75.99m.79 0l-.84-.99m-1.12-2.73l.75-.99m-.8 0l.85.99m-2.68 2.48l.75-.99m-.79 0l.84.99m-2.67 2.47l.75-.99m-.8 0l.84.99m-2.67 2.48l.75-.99m.05.99l-.85-.99m3.38-8.66l-.75.99m.8 0l-.84-.99m-1.08 2.47l-.75.99m.79 0l-.84-.99m-1.08 2.48l-.75.99m-.05-.99l.85.99m-1.93 1.48l-.75.99m-.04-.99l.84.99m-1.92 1.49l-.75.99m.79 0l-.84-.99m4.51-10.15l.75-.99m-.8 0l.84.99m-2.67 2.47l.75-.99m-.79 0l.84.99m-2.67 2.48l.75-.99m.04.99l-.84-.99m-1.83 3.46l.75-.99m-.8 0l.85.99m-2.68 2.48l.75-.99m.05.99l-.84-.99m4.5-10.15l.75-.99m.05.99l-.84-.99m-1.83 3.47l.75-.99m-.8 0l.84.99m-2.67 2.47l.75-.99m-.8 0l.85.99m-2.68 2.48l.75-.99m.05.99l-.84-.99m-1.83 3.46l.75-.99m.04.99l-.84-.99m5.26-11.14l-.75.99m-.05-.99l.84.99m-1.92 1.49l-.75.99m.8 0l-.85-.99m-1.07 2.47l-.76.99m-.04-.99l.84.99m-1.92 1.49l-.75.99m.79 0l-.84-.99m-1.08 2.47l-.75.99m-.04-.99l.84.99m2.54-9.65l-.75.99m-.05-.99l.84.99m-1.92 1.49l-.75.99m.8 0l-.85-.99m-1.08 2.47l-.75.99m.8 0l-.84-.99m-1.08 2.48l-.75.99m-.05-.99l.84.99m-1.21-4.71l-.75.99m-.05-.99l.84.99m-1.92 1.49l-.75.99m.8 0l-.85-.99m-2.99-.25l.75-.99m-.8 0l.84.99m40.98.32l-24 10-24-10 24-10 24 10zm-38.4 4l-9.6 4 9.6 4 14.4 6 14.4-6 9.6-4-9.6-4m-28.8 8l-9.6 4 9.6 4 14.4 6 14.4-6 9.6-4-9.6-4" stroke="#fff" fill="none"/></svg>