<svg xmlns="http://www.w3.org/2000/svg" width="64" height="64"><path d="M45.25 18c-2.5.14-2.52-1.35-2.52-1.35m-7.16 11.42c-1.35.52-3.15.66-4.15.7m2.31-3.66c-1.57.37-3.26.05-4.33-.25M45.25 18c.99 1.7.56 4.55-.58 6.9-.87 1.81-2.74 3.51-5.13 4.6-1.52.7-3.26 1.15-5.09 1.23-.91-.19-1.68-.63-2.34-1.23-.25-.22-.48-.47-.69-.73-.96-1.17-1.6-2.65-2.02-3.91-.5-1.51-.68-2.72-.68-2.72 7.06 2.15 9-.92 10.02-2.25.8-1.04 2.3-3.02 3.99-3.24m6.06-6L45.25 18m.91-9.19l-3.44 7.83M40.52 29h2s3.79.51 3.79 2.64c0 1.44-1.91 4.36-5.43 6.15-1.79.91-3.97 1.21-6.54 1.21H23.2c-2.93 0-5.37-2.33-5.41-5.25v-.16c0-1.12.31-1.95.8-2.55.35-.44.78-.78 1.27-1.04 1.87-1.07 4.36-1 4.36-1h7.39m9.27 8.79c-1.34 6.11-8.66 14.5-20.02 14.5h-6.91M19.86 30H4.9" stroke="#fff" fill="none"/></svg>