<svg xmlns="http://www.w3.org/2000/svg" width="64" height="64"><path d="M42 18.16l-4.19 1.75h0-.02M42 21.65l-4.19-1.74h0-.02M42 21.65v-3.49m9 15.78l-4.59-1.95L51 30.05m0 3.99v-4.1M18.29 19.69l9.6 4 4.59 1.92h.03m2.39-1l-4.59-1.92h-.02 0l-9.59-4h0m21.3-.53l-10-4.17m10 7.66l-5.41 2.26-1.69.7m-16.6-4.92h-.01L8 23.99h0m43 10.05L32 42l-14.4-6L8 31.99l9.6-4m10.29-4.3l2.4-1h.02M51 29.94l-14.41-6.03m-14.39 6h0l-4.6-1.92-9.6-4m14.2 5.92h0l10.3-4.3h.01M20.7 18.69h0l11.3-4.7M17.6 36L8 40l24 10 24-10-9.6-4" stroke="#fff" fill="none" stroke-linecap="round" stroke-linejoin="round"/></svg>