<svg xmlns="http://www.w3.org/2000/svg" width="160" height="160"><style>.st2{fill:#fff}</style><path d="M80 0c44.18 0 80 35.81 80 80 0 44.18-35.82 80-80 80-44.19 0-80-35.82-80-80C0 35.81 35.81 0 80 0" fill="#ebf7ff" fill-rule="evenodd"/><path d="M140 100l-60 25-60-25 24-10 36 15 35.91-15.23.09.23z" fill="#78c2e9"/><path class="st2" d="M127.5 75.13v9.73L116.04 80zM105 45.43v8.72l-10.45-4.36z"/><path d="M94.55 49.8L105 54.15 91.47 59.8l-4.19 1.75-11.51-4.8h-.05l-23.94-10L80 35l25 10.43z" fill="#4e9cda"/><path d="M116.04 80l11.46 4.86-11.59 4.91L80 105 20 80l23.98-10H44l11.5 4.8h.03l25.69-10.75-11.47-4.8 5.97-2.5h.05l11.5 4.79 4.2-1.75 36.03 15.34z" fill="#047cc3"/><path class="st2" d="M81.22 64.05L55.52 74.8h-.02L44 70h-.01L20 60l25.75-10.75 24 10z"/><path d="M104.99 45.42L94.54 49.8l10.45 4.35m22.5 30.7L116.04 80l11.45-4.86m-22.5-20.99l-17.72 7.4-35.5-14.8L79.99 35l25 10.42v8.73zM43.99 70l-24 10 24 10 36 15 47.5-20.15v-9.71L91.47 59.8M45.74 49.25l24 10 11.48 4.8-25.7 10.75h-.03.03-.03L19.99 60l25.75-10.75zm24 10l5.98-2.5h.05M43.99 90l-24 10 60 25 60-25-24-10" stroke="#1f5779" fill="none" stroke-width="2"/></svg>