<svg xmlns="http://www.w3.org/2000/svg" width="160" height="160"><path d="M80 0c44.18 0 80 35.81 80 80 0 44.18-35.82 80-80 80-44.19 0-80-35.82-80-80C0 35.81 35.81 0 80 0" fill="#ebf7ff" fill-rule="evenodd"/><path d="M131.02 106.25l-60 25h-.01l-12.42-5.18 59.99-25h.01z" fill="#fff"/><path d="M86.48 57.69c-4.67.68-9.12.61-12.97.03-12.24-1.83-18.52-8.83-7.35-13.5 7.64-3.18 20.04-3.18 27.68 0 10.34 4.32 5.98 11.54-7.36 13.47m12.8-15.73c-10.65-4.44-27.91-4.44-38.56 0-10.64 4.43-10.64 11.63 0 16.06 8.94 3.7 21.81 4.18 31.6 2.1h.01c16.36-3.45 20.18-12.65 6.95-18.16M116.66 80L80 95.27 43.33 80l24.33-10.14v-.02c2.31.99 3.95 1.66 6.5 2.72L56.32 80l.05.01S79.84 89.79 80 89.86c.1-.05 23.62-9.85 23.63-9.85.01 0-17.8-7.45-17.8-7.45 1.86-.77 4.06-1.69 6.5-2.7z" fill="#78c2e9"/><path d="M73.51 57.73l.01-.03L80 55l6.48 2.7c-4.67.68-9.12.61-12.97.03M80 85l5.83 2.43c-1.77.74-3.7 1.54-5.83 2.43-2.13-.89-4.07-1.69-5.83-2.43zm51.02 21.26L140 110l-60 25-8.98-3.74zM116.67 80L80 95.27 43.33 80l24.33-10.14v-.01c2.32.98 9.85 4.11 12.34 5.15.77-.32 9.9-4.13 12.34-5.14zM60.72 41.97c10.65-4.44 27.91-4.44 38.56 0 13.23 5.51 9.41 14.71-6.95 18.16h-.01c-9.79 2.08-22.66 1.6-31.6-2.1-10.64-4.43-10.64-11.63 0-16.06M140 50L80 25 20 50c18.01 7.5 28.92 12.05 36 15L20 80c11.48 4.77 23.87 9.95 36 15l-36 15 38.58 16.08h.01l59.99-25L104 95l36-15-36-15 36-15" fill="#047cc3"/><path d="M118.59 101.08h-.01l-59.99 25h-.01m12.43 5.18h.01l60-25M93.84 44.23c-7.64-3.18-20.04-3.18-27.68 0-14.7 6.13.8 16.31 20.32 13.47m0 0c13.33-1.94 17.7-9.16 7.36-13.47m-1.51 15.9h-.01M104 65l36 15-36 15-24 10c-18.84-7.85-40.72-16.97-60-25l36-15m30.48-7.3L80 55l-6.48 2.7m18.81 2.43s0 .01-.01 0c-9.79 2.07-22.67 1.6-31.6-2.1-10.64-4.43-10.64-11.63 0-16.06 10.65-4.44 27.91-4.44 38.56 0 13.23 5.5 9.4 14.7-6.95 18.16zM80 25L20 50c55.89 23.29 43.48 18.12 60 25 4.45-1.86 53.3-22.21 60-25L80 25zM56 95l-36 15 38.58 16.08h.01l12.42 5.18h.01L80 135l60-25-8.98-3.74-12.43-5.18h-.01L104 95m-18.17-7.57L80 85l-5.83 2.43m11.66-14.87L103.67 80c-2.43 1 8.76-3.66-23.67 9.86L56.33 80l17.84-7.44m18.17-2.7L116.67 80 80 95.27 43.33 80l24.33-10.14" stroke="#1f5779" fill="none" stroke-width="2"/></svg>