<svg xmlns="http://www.w3.org/2000/svg" width="160" height="160"><style>.st1{fill:#78c2e9;fill-rule:evenodd}</style><path d="M80 0c44.18 0 80 35.81 80 80 0 44.18-35.82 80-80 80-44.19 0-80-35.82-80-80C0 35.81 35.81 0 80 0" fill="#ebf7ff" fill-rule="evenodd"/><path class="st1" d="M121.27 28.16L113.12 45c-6.23.37-6.29-3.36-6.29-3.36h-.01v-.01l7.92-18.05c2.27 1.39 4.45 2.93 6.53 4.58"/><path d="M111.69 62.26c-1.88 3.88-5.57 7.55-10.35 10.24h-.01a34.07 34.07 0 01-15.2 4.32c-2.27-.46-4.22-1.57-5.86-3.06-.43-.4-.84-.82-1.23-1.26h-.02c-.15-.19-.31-.38-.47-.57-2.39-2.93-4-6.62-5.03-9.78-1.26-3.78-1.7-6.79-1.7-6.79 17.64 5.36 22.49-2.3 25.05-5.63 2-2.6 5.73-7.54 9.94-8.1h.02s.05 3.73 6.29 3.36h.01c2.47 4.25 1.39 11.4-1.44 17.27" fill="#4e9cda" fill-rule="evenodd"/><path class="st1" d="M115.77 79.12c0 3.57-4.74 10.88-13.57 15.38-4.45 2.25-9.9 3-16.32 3H58.01c-7.32 0-13.43-5.81-13.53-13.13V84c0-2.82.77-4.88 1.99-6.41.88-1.09 1.98-1.95 3.18-2.59 4.7-2.68 10.92-2.5 10.92-2.5h18.47c.39.44.8.86 1.24 1.26 1.64 1.49 3.58 2.6 5.86 3.06a34.066 34.066 0 0015.19-4.32h5s9.44 1.27 9.44 6.62"/><path d="M102.2 94.5c-3.35 15.27-21.65 36.25-50.05 36.25H37.4C22.94 118.58 13.75 100.37 13.75 80c0-1.69.06-3.35.18-5h35.72c-1.2.65-2.3 1.5-3.18 2.59-1.22 1.53-1.99 3.59-1.99 6.41v.37c.1 7.32 6.21 13.13 13.53 13.13h27.87c6.42 0 11.87-.75 16.32-3" fill="#fff" fill-rule="evenodd"/><path d="M113.12 45c-6.24.36-6.3-3.37-6.3-3.37M88.94 70.19c-3.38 1.28-7.89 1.64-10.39 1.74m5.79-9.16c-3.93.94-8.16.15-10.82-.61M113.12 45c2.47 4.25 1.4 11.39-1.43 17.26-2.19 4.53-6.86 8.77-12.84 11.5-3.8 1.74-8.15 2.87-12.72 3.07-2.28-.46-4.21-1.57-5.86-3.07-.61-.56-1.18-1.17-1.72-1.83-2.39-2.92-3.99-6.61-5.03-9.77-1.26-3.78-1.7-6.8-1.7-6.8 17.63 5.37 22.49-2.3 25.05-5.62 2-2.61 5.73-7.56 9.95-8.11M122 26.64L113.12 45m2.3-22.98l-8.6 19.6m-5.5 30.88h5s9.45 1.27 9.45 6.62c0 3.57-4.75 10.88-13.58 15.38-4.44 2.25-9.89 3-16.32 3H58.01c-7.32 0-13.43-5.81-13.54-13.12V84c0-2.83.78-4.88 2-6.41.87-1.09 1.97-1.94 3.18-2.59 4.69-2.68 10.92-2.5 10.92-2.5h18.48m23.14 22c-3.35 15.27-21.64 36.25-50.04 36.25H34.87M49.65 75H12.27" stroke="#1f5779" fill="none" stroke-width="2"/></svg>