<svg xmlns="http://www.w3.org/2000/svg" width="160" height="160"><path d="M80 0c44.18 0 80 35.81 80 80 0 44.18-35.82 80-80 80-44.19 0-80-35.82-80-80C0 35.81 35.81 0 80 0" fill="#ebf7ff" fill-rule="evenodd"/><path d="M62.5 84.94c.88 17.75 1.73 42.79.98 45.44-1.34 4.67-13 3.67-13 3.67l-1.94-38.06H29.16v-6h19.08l-2.4-46.22c-.2-3.88 2.82-7.18 6.7-7.32l10.6-.4s59-18.67 67.67-7.67c-3.33 4-59 14.33-68.33 17-9.34 2.67-7.34 9.33-7.34 9.33s3.56 14.51 7.36 30.23" fill="#4e9cda"/><path d="M72.81 78.05c4 16 9.33 40.66 9.33 40.66s15.67 1.67 14.67 9c-1 7.34-11.67 8-16.67 7 0 0-6.33-1-9-13.33-1.29-5.96-5.07-21.73-8.64-36.44-3.8-15.72-7.36-30.23-7.36-30.23s-2-6.66 7.34-9.33c9.33-2.67 65-13 68.33-17 1 15.33-31 21.33-42.67 24.33-11.66 3-19.33 9.34-15.33 25.34" fill="#78c2e9"/><path d="M63.87 53.63c-.86 0-1.56.7-1.56 1.56 0 .87.7 1.57 1.56 1.57.87 0 1.56-.7 1.56-1.57 0-.86-.69-1.56-1.56-1.56zM48.16 89.99h-19v6h19m82.65-67.61c-8.67-11-67.67 7.67-67.67 7.67l-10.6.4c-3.88.14-6.9 3.44-6.7 7.32l4.64 90.28s11.66 1 13-3.67c.75-2.65-.1-27.69-.98-45.44m10.31-6.89c4 16 9.33 40.66 9.33 40.66s15.67 1.67 14.67 9c-1 7.34-11.67 8-16.67 7 0 0-6.33-1-9-13.33-1.29-5.96-5.07-21.73-8.64-36.44-3.8-15.72-7.36-30.23-7.36-30.23s-2-6.66 7.34-9.33c9.33-2.67 65-13 68.33-17 1 15.33-31 21.33-42.67 24.33-11.66 3-19.33 9.34-15.33 25.34z" stroke="#1f5779" fill="none" stroke-width="2" stroke-linecap="round" stroke-linejoin="round"/></svg>