<svg xmlns="http://www.w3.org/2000/svg" width="160" height="160"><path d="M80 0c44.18 0 80 35.81 80 80 0 44.18-35.82 80-80 80-44.19 0-80-35.82-80-80C0 35.81 35.81 0 80 0" fill="#ebf7ff" fill-rule="evenodd"/><path d="M140 100l-60 25-60-25 24-10 36 15 36-15z" fill="#047cc3"/><path d="M140 80l-60 25-60-25 24-10 36 15 36-15z" fill="#4e9cda"/><path d="M140 60L80 85 20 60l60-25z" fill="#78c2e9"/><path d="M140 60L80 85 20 60l60-25 60 25zM44 70L20 80l24 10 36 15 36-15 24-10-24-10M44 90l-24 10 24 10 36 15 36-15 24-10-24-10m8.71-30.19l-1.88 2.47m-.11-2.47l2.1 2.47m-7.73-5.57l-1.87 2.48m-.12-2.48l2.11 2.48m-4.81 3.71l-1.87 2.48m-.12-2.48l2.11 2.48m-3.04-11.76l-1.88 2.48m-.11-2.48l2.11 2.48m-4.81 3.71l-1.88 2.47m-.11-2.47l2.11 2.47m-4.81 3.71l-1.88 2.48m-.11-2.48l2.1 2.48m-4.8 3.71l-1.88 2.48m-.11-2.48l2.1 2.48m6.35-24.13L99.99 53m-.11-2.47l2.1 2.47m-4.8 3.71l-1.88 2.48m-.12-2.48l2.11 2.48m-4.8 3.71l-1.88 2.48m-.12-2.48l2.11 2.48m-4.81 3.71l-1.87 2.47m-.12-2.47l2.11 2.47m-4.81 3.72l-1.87 2.47m-.12-2.47l2.11 2.47m11.03-30.32l-1.87 2.48m-.12-2.48l2.11 2.48m-4.81 3.71l-1.87 2.48m-.12-2.48l2.11 2.48m-4.81 3.71L83 62.28m-.12-2.47l2.11 2.47m-4.81 3.71l-1.87 2.48m-.12-2.48l2.11 2.48m-4.81 3.71l-1.88 2.48m-.11-2.48l2.11 2.48m11.03-30.32l-1.88 2.47m-.11-2.47l2.11 2.47m-4.81 3.72L80.07 53m-.11-2.47l2.1 2.47m-4.8 3.71l-1.88 2.48m-.11-2.48l2.1 2.48m-4.8 3.71l-1.88 2.48m-.11-2.48l2.1 2.48m-4.8 3.71L66 71.56m-.11-2.47l2.1 2.47m11.04-30.31l-1.88 2.47m-.12-2.47l2.11 2.47m-4.8 3.71l-1.88 2.48m-.12-2.48l2.11 2.48m-4.8 3.71l-1.88 2.48m-.12-2.48l2.11 2.48m-4.81 3.71l-1.87 2.47m-.12-2.47l2.11 2.47m-4.81 3.71l-1.87 2.48m-.12-2.48l2.11 2.48m6.34-24.13l-1.87 2.47m-.12-2.47l2.11 2.47m-4.81 3.72L60.16 53m-.12-2.47L62.15 53m-4.81 3.71l-1.88 2.48m-.11-2.48l2.11 2.48m-4.81 3.71l-1.88 2.48m-.11-2.48l2.11 2.48m-3.04-11.76l-1.88 2.48m-.11-2.48l2.1 2.48m-4.8 3.71l-1.88 2.47m-.12-2.47l2.11 2.47m-7.73-5.57l-1.87 2.48m-.12-2.48l2.11 2.48" stroke="#1f5779" fill="none" stroke-width="2"/></svg>