<svg xmlns="http://www.w3.org/2000/svg" width="160" height="160"><path d="M80 0c44.18 0 80 35.81 80 80 0 44.18-35.82 80-80 80-44.19 0-80-35.82-80-80C0 35.81 35.81 0 80 0" fill="#ebf7ff" fill-rule="evenodd"/><path d="M41 103v11.41c1.01-.44 2.11-.51 3-.32V103zm80 7v4.09c-.88-.19-1.99-.12-3 .32V110z" fill="#fff"/><path d="M124 39s-8 6.66-12 11.66-30.34 36.67-30.34 36.67S71 103 57 103H36V39z" fill="#4e9cda"/><path d="M43 114c-2.82 0-5 2.29-5 5 0 2.76 2.24 5 5 5 2.75 0 5-2.24 5-5s-2.23-5-5-5m77 10c-2.77 0-5-2.24-5-5 0-3.24 3.02-5.56 6-4.91 5.85 1.19 5.01 9.91-1 9.91M36 35h88v4H36z" fill="#78c2e9"/><path d="M121 114v-4H44m-3 0h-4m88 9c0-2.77-2.24-5-5-5-2.77 0-5 2.23-5 5 0 2.76 2.23 5 5 5 2.76 0 5-2.24 5-5zm-77 0c0-2.77-2.24-5-5-5-2.77 0-5 2.23-5 5 0 2.76 2.23 5 5 5 2.76 0 5-2.24 5-5zm70-9v4m-74-11v11m-3-11v11m-5-75v-4h88v4s-8 6.66-12 11.66-30.34 36.67-30.34 36.67S71 103 57 103H36V39h88" stroke="#1f5779" fill="none" stroke-width="2"/></svg>