<svg xmlns="http://www.w3.org/2000/svg" width="160" height="160"><path d="M80 0c44.18 0 80 35.81 80 80 0 44.18-35.82 80-80 80-44.19 0-80-35.82-80-80C0 35.81 35.81 0 80 0" fill="#ebf7ff" fill-rule="evenodd"/><path d="M63.25 109.47l1.81-37.12-1.57-35.7H96.5l-1.57 35.7 1.82 37.12zM103 55.34l11.88-2.71c-1.97-8.98-4-17.65-4.55-20.01-1.11-4.74-1.93-6.36-4.83-9.24-1.84-1.86-8.3-3.11-12.71-3.79-1.07 1.46-4.85 4.88-12.79 4.81h-.24c-7.79 0-11.5-3.35-12.56-4.81-4.41.68-10.87 1.93-12.72 3.79-2.89 2.88-3.71 4.5-4.82 9.24-.55 2.36-2.58 11.03-4.55 20.01h.01l11.86 2.71 2.24-10.32.94 28.42S57.79 87.27 56.77 103c-1.02 15.7-1.82 33.8-1.82 33.8s11.88 4.17 22.88 4.17c.72 0 1.44-.03 2.17-.06 11.52.63 25.04-4.11 25.04-4.11s-.79-18.1-1.82-33.8c-1.03-15.73-3.39-29.56-3.39-29.56l.94-28.42s1 4.61 2.23 10.32" fill="#4e9cda"/><path d="M45.11 52.63c-1.99 9.09-3.9 18.48-4.14 22-.08 1.18.24 1.82.96 2.3.09.02.19.07.3.08 2.63.8 7.59 1.03 7.59 1.03s.13.01.33-.02c.62-.04 1.85-.3 2.19-1.65.29-1.1 2.75-12.32 4.64-21.03zm69.77 0L103 55.34c1.91 8.71 4.36 19.93 4.64 21.03.36 1.35 1.58 1.61 2.19 1.65.2.03.33.02.33.02s4.97-.23 7.59-1.03c.11-.01.22-.06.31-.08.71-.48 1.04-1.12.96-2.3-.25-3.52-2.16-12.91-4.14-22m-51.63 56.84l1.81-37.13-1.58-35.69H96.5l-1.57 35.69 1.82 37.13z" fill="#78c2e9"/><path d="M88.45 19.02s-2.53 2.77-8.45 2.45c-5.92.32-8.45-2.45-8.45-2.45s-1.85.19-4.34.57c1.05 1.45 4.76 4.8 12.55 4.8H80c7.95.07 11.73-3.34 12.79-4.8a98.98 98.98 0 00-4.34-.57m29.31 58c-2.63.79-7.59 1.01-7.59 1.01s-.13.02-.33-.01l.29 2.51 7.93-.92zm-67.6 1l-.29 2.51-7.93-.92.3-2.59c2.63.79 7.59 1.01 7.59 1.01s.13.02.33-.01" fill="#fff"/><path d="M117.75 77.02l.3 2.6-7.93.91-.29-2.51m-6.82-22.69l11.87-2.7M92.78 19.6c-1.05 1.45-4.83 4.86-12.78 4.8-7.96.06-11.74-3.35-12.79-4.8m-3.72 17.04l1.58 35.7-1.82 37.13h33.49l-1.82-37.13 1.58-35.7H63.49zM80 21.48c5.92.31 8.45-2.45 8.45-2.45s14.17 1.46 17.06 4.34c2.88 2.88 3.71 4.51 4.82 9.24 1.1 4.74 8.21 35 8.68 42.02.08 1.19-.23 1.82-.94 2.3-2.53.86-7.9 1.1-7.9 1.1s-2.06.16-2.53-1.66c-.47-1.82-6.87-31.35-6.87-31.35l-.95 28.43s2.37 13.82 3.4 29.54c1.02 15.72 1.81 33.81 1.81 33.81s-13.5 4.74-25.03 4.1c-11.54.64-25.04-4.1-25.04-4.1s.79-18.09 1.81-33.81c1.03-15.72 3.4-29.54 3.4-29.54l-.95-28.43s-6.4 29.53-6.87 31.35c-.47 1.82-2.53 1.66-2.53 1.66s-5.37-.24-7.9-1.1c-.71-.48-1.02-1.11-.94-2.3.47-7.02 7.58-37.28 8.68-42.02 1.11-4.73 1.94-6.36 4.82-9.24 2.89-2.88 17.06-4.34 17.06-4.34s2.53 2.76 8.46 2.45zM50.16 78.02l-.29 2.51-7.93-.91.3-2.6m14.74-21.69l-11.87-2.7" stroke="#1f5779" fill="none" stroke-width="2" stroke-linecap="round" stroke-linejoin="round"/></svg>